<?xml version="1.0" encoding="iso-8859-1"?>
<!-- Generator: Adobe Illustrator 19.0.0, SVG Export Plug-In . SVG Version: 6.00 Build 0)  -->
<svg version="1.1" id="Capa_1" xmlns="http://www.w3.org/2000/svg" xmlns:xlink="http://www.w3.org/1999/xlink" x="0px" y="0px"
	 viewBox="0 0 512 512" style="enable-background:new 0 0 512 512;" xml:space="preserve">
<path style="fill:#FF3501;" d="M398.161,276.795c0,78.891-63.958,142.849-142.849,142.849c-11.989,0-23.621-1.477-34.744-4.258
	c-62.104-15.523-108.104-71.689-108.104-138.591c0-78.901,63.958-142.859,142.849-142.859c29.59,0,57.093,9.004,79.889,24.416
	C373.195,184.031,398.161,227.494,398.161,276.795z"/>
<path style="fill:#FF5023;" d="M398.161,276.795c0,78.891-63.958,142.849-142.849,142.849c-11.989,0-23.621-1.477-34.744-4.258
	c-37.994-25.679-62.96-69.143-62.96-118.433c0-78.901,63.958-142.859,142.849-142.859c11.989,0,23.621,1.477,34.744,4.258
	C373.195,184.031,398.161,227.494,398.161,276.795z"/>
<path style="fill:#96C8EF;" d="M506.927,297.136v204.637c0,5.653-4.584,10.227-10.237,10.227H15.31
	c-5.653,0-10.237-4.574-10.237-10.227V297.136c0-1.467,1.222-2.648,2.73-2.648h6.448c27.563,0,27.563,10.247,55.137,10.247
	s27.574-10.186,55.147-10.186s27.574,10.186,55.147,10.186c27.584,0,27.584-10.186,55.157-10.186s27.574,10.186,55.147,10.186
	c21.421,0,21.421-10.186,42.842-10.186s21.421,10.186,42.842,10.186c21.421,0,21.421-10.186,42.842-10.186
	c21.421,0,21.421,10.186,42.842,10.186c10.716,0,16.063-2.567,21.421-5.124c5.358-2.557,10.706-5.124,21.421-5.124
	C505.705,294.488,506.927,295.67,506.927,297.136z"/>
<path style="fill:#FFA733;" d="M506.927,426.437v75.336c0,5.653-4.584,10.227-10.237,10.227H15.31
	c-5.653,0-10.237-4.574-10.237-10.227v-75.336H506.927z"/>
<path style="fill:#FFCD00;" d="M233.623,206.024h-2.791l0.713-12.182c0.244-4.207-2.974-7.823-7.181-8.067
	c-4.207-0.255-7.833,2.964-8.078,7.181l-0.754,13.069H50.275l-0.845-13.12c-0.265-4.207-3.881-7.405-8.118-7.13
	c-4.207,0.275-7.395,3.901-7.13,8.118l0.784,12.132h-2.353c-4.227,0-7.64,3.412-7.64,7.64c0,4.217,3.412,7.64,7.64,7.64h3.331
	L46.69,388.232c5.268,4.181,23.021,26.912,59.099,35.834c37.551,9.308,78.396-0.952,107.412-29.967l7.221-9.113l9.525-163.683h3.677
	c4.217,0,7.64-3.423,7.64-7.64C241.263,209.437,237.84,206.024,233.623,206.024z"/>
<g>
	<path style="fill:#FF9811;" d="M105.789,424.066c-9.31-2.302-18.376-5.806-26.962-10.502l-9.626-192.261h24.925L105.789,424.066z"
		/>
	<path style="fill:#FF9811;" d="M196.129,221.303L185.688,414.41c-8.118,4.278-16.634,7.497-25.353,9.656l10.604-202.763H196.129z"
		/>
</g>
<path style="fill:#CC7400;" d="M233.619,206.02h-2.784l0.708-12.178c0.245-4.212-2.971-7.826-7.183-8.07
	c-4.207-0.254-7.825,2.971-8.07,7.183l-0.76,13.066H50.274l-0.844-13.112c-0.271-4.21-3.883-7.411-8.114-7.133
	c-4.21,0.271-7.404,3.904-7.132,8.114l0.781,12.132h-2.357c-4.219,0-7.64,3.419-7.64,7.64c0,4.22,3.42,7.64,7.64,7.64h3.34
	l15.2,236.128c0.259,4.02,3.595,7.15,7.623,7.15h149.819c4.047,0,7.392-3.157,7.626-7.195l13.731-236.082h3.672
	c4.219,0,7.64-3.419,7.64-7.64C241.258,209.44,237.838,206.02,233.619,206.02z M201.381,449.298H65.934L51.258,221.299h163.385
	L201.381,449.298z"/>
<path style="fill:#AA6100;" d="M232.844,487.495H32.266c-2.4,0-4.661-1.128-6.104-3.046c-1.443-1.917-1.902-4.401-1.237-6.708
	l22.869-79.397c1.168-4.053,5.402-6.398,9.456-5.226c4.054,1.167,6.395,5.402,5.226,9.456l-20.059,69.643h180.526l-18.314-69.819
	c-1.071-4.082,1.37-8.257,5.452-9.328c4.078-1.068,8.257,1.371,9.327,5.452l20.827,79.397c0.601,2.291,0.106,4.731-1.34,6.605
	C237.446,486.396,235.212,487.495,232.844,487.495z"/>
<g>
	<path style="fill:#1E81CE;" d="M324.656,378.898c-7.977,0-12.318-1.966-15.806-3.545c-2.801-1.268-4.826-2.185-9.505-2.185
		c-4.678,0-6.703,0.916-9.505,2.185c-3.489,1.58-7.83,3.545-15.807,3.545c-4.219,0-7.64-3.419-7.64-7.64
		c0-4.22,3.42-7.639,7.64-7.639c4.678,0,6.703-0.916,9.505-2.185c3.489-1.58,7.83-3.545,15.807-3.545s12.318,1.966,15.807,3.545
		c2.801,1.268,4.825,2.185,9.505,2.185c4.219,0,7.64,3.419,7.64,7.639C332.296,375.479,328.875,378.898,324.656,378.898z"/>
	<path style="fill:#1E81CE;" d="M368.222,342.021c-7.977,0-12.318-1.966-15.807-3.545c-2.801-1.268-4.825-2.185-9.505-2.185
		s-6.703,0.916-9.505,2.185c-3.489,1.58-7.83,3.545-15.807,3.545c-4.219,0-7.64-3.419-7.64-7.639s3.42-7.64,7.64-7.64
		c4.678,0,6.703-0.916,9.505-2.185c3.489-1.58,7.83-3.545,15.807-3.545s12.318,1.966,15.806,3.545
		c2.801,1.268,4.826,2.185,9.505,2.185c4.219,0,7.64,3.419,7.64,7.64S372.441,342.021,368.222,342.021z"/>
	<path style="fill:#1E81CE;" d="M461.934,398.044c-7.977,0-12.318-1.966-15.807-3.545c-2.801-1.268-4.825-2.185-9.505-2.185
		c-4.679,0-6.703,0.916-9.505,2.185c-3.489,1.58-7.83,3.545-15.807,3.545c-4.219,0-7.639-3.419-7.639-7.64s3.42-7.639,7.639-7.639
		c4.678,0,6.703-0.916,9.505-2.185c3.489-1.58,7.83-3.545,15.807-3.545c7.977,0,12.318,1.966,15.806,3.545
		c2.801,1.268,4.826,2.185,9.505,2.185c4.219,0,7.64,3.419,7.64,7.639S466.153,398.044,461.934,398.044z"/>
</g>
<g>
	<path style="fill:#EE8700;" d="M306.253,478.895h-6.112c-4.219,0-7.639,3.419-7.639,7.64c0,4.22,3.42,7.639,7.639,7.639h6.112
		c4.219,0,7.64-3.419,7.64-7.639C313.892,482.315,310.472,478.895,306.253,478.895z"/>
	<path style="fill:#EE8700;" d="M408.113,464.635h-6.112c-4.219,0-7.639,3.419-7.639,7.639s3.42,7.64,7.639,7.64h6.112
		c4.219,0,7.64-3.419,7.64-7.64S412.332,464.635,408.113,464.635z"/>
	<path style="fill:#EE8700;" d="M331.718,447.319h-6.112c-4.219,0-7.639,3.419-7.639,7.639s3.42,7.64,7.639,7.64h6.112
		c4.219,0,7.639-3.419,7.639-7.64S335.937,447.319,331.718,447.319z"/>
	<path style="fill:#EE8700;" d="M282.825,456.486h-6.112c-4.219,0-7.64,3.419-7.64,7.64s3.42,7.639,7.64,7.639h6.112
		c4.219,0,7.64-3.419,7.64-7.639S287.044,456.486,282.825,456.486z"/>
	<path style="fill:#EE8700;" d="M368.387,478.895h-6.112c-4.219,0-7.64,3.419-7.64,7.64c0,4.22,3.42,7.639,7.64,7.639h6.112
		c4.219,0,7.639-3.419,7.639-7.639C376.027,482.315,372.606,478.895,368.387,478.895z"/>
	<path style="fill:#EE8700;" d="M444.783,443.244h-6.112c-4.219,0-7.639,3.419-7.639,7.639s3.42,7.639,7.639,7.639h6.112
		c4.219,0,7.639-3.419,7.639-7.639S449.002,443.244,444.783,443.244z"/>
	<path style="fill:#EE8700;" d="M477.368,471.765h-6.112c-4.219,0-7.639,3.419-7.639,7.64s3.42,7.639,7.639,7.639h6.112
		c4.219,0,7.64-3.419,7.64-7.639S481.587,471.765,477.368,471.765z"/>
</g>
<g>
	<path style="fill:#D9CCBC;" d="M495.633,59.075c-13.738,0-25.909,6.8-33.351,17.204c-7.442-10.403-19.613-17.204-33.351-17.204
		c-4.219,0-7.639,3.419-7.639,7.64c0,4.22,3.42,7.64,7.639,7.64c11.579,0,21.392,7.696,24.6,18.239h-2.673
		c-4.219,0-7.639,3.419-7.639,7.64c0,4.22,3.42,7.64,7.639,7.64h22.845c4.219,0,7.64-3.419,7.64-7.64c0-4.22-3.42-7.64-7.64-7.64
		h-2.672c3.209-10.545,13.021-18.239,24.6-18.239c4.219,0,7.64-3.419,7.64-7.64C503.272,62.494,499.852,59.075,495.633,59.075z"/>
	<path style="fill:#D9CCBC;" d="M420.261,15.279c4.219,0,7.639-3.419,7.639-7.64S424.48,0,420.261,0
		c-13.738,0-25.909,6.8-33.351,17.203C379.468,6.8,367.296,0,353.559,0c-4.219,0-7.639,3.419-7.639,7.64s3.42,7.64,7.639,7.64
		c11.578,0,21.392,7.695,24.6,18.238h-2.672c-4.219,0-7.639,3.419-7.639,7.64s3.42,7.64,7.639,7.64h22.845
		c4.219,0,7.639-3.419,7.639-7.64s-3.42-7.64-7.639-7.64h-2.673C398.869,22.974,408.681,15.279,420.261,15.279z"/>
</g>
<g>
	<path style="fill:#FF5023;" d="M256.574,88.106c-4.219,0-7.64-3.419-7.64-7.64V43.799c0-4.22,3.42-7.64,7.64-7.64
		s7.639,3.419,7.639,7.64v36.668C264.214,84.687,260.795,88.106,256.574,88.106z"/>
	<path style="fill:#FF5023;" d="M190.12,99.287c-3.12,0-6.049-1.927-7.179-5.029L170.4,59.802c-1.443-3.965,0.601-8.348,4.566-9.792
		c3.963-1.441,8.347,0.601,9.792,4.565l12.541,34.456c1.443,3.965-0.601,8.348-4.566,9.792
		C191.87,99.137,190.988,99.287,190.12,99.287z"/>
	<path style="fill:#FF5023;" d="M131.499,132.52c-2.181,0-4.345-0.928-5.856-2.729l-23.57-28.089
		c-2.713-3.233-2.291-8.051,0.941-10.763c3.231-2.712,8.05-2.291,10.763,0.941l23.57,28.089c2.713,3.233,2.291,8.051-0.941,10.763
		C134.975,131.932,133.232,132.52,131.499,132.52z"/>
	<path style="fill:#FF5023;" d="M87.766,183.801c-1.296,0-2.61-0.33-3.813-1.025l-31.755-18.334
		c-3.654-2.11-4.906-6.782-2.796-10.436c2.11-3.655,6.781-4.905,10.436-2.796l31.755,18.334c3.654,2.11,4.906,6.782,2.796,10.436
		C92.974,182.432,90.406,183.801,87.766,183.801z"/>
	<path style="fill:#FF5023;" d="M483.395,249.965c0,0-0.002,0-0.003,0l-36.996-0.014c-4.219-0.002-7.638-3.423-7.636-7.643
		c0.001-4.218,3.422-7.636,7.64-7.636c0.001,0,0.002,0,0.003,0l36.996,0.014c4.219,0.002,7.638,3.423,7.636,7.643
		C491.032,246.546,487.612,249.965,483.395,249.965z"/>
	<path style="fill:#FF5023;" d="M423.856,186.447c-2.64,0-5.208-1.37-6.623-3.821c-2.11-3.654-0.858-8.326,2.796-10.436
		l31.755-18.334c3.654-2.107,8.326-0.86,10.436,2.796c2.11,3.654,0.858,8.326-2.796,10.436l-31.755,18.334
		C426.466,186.117,425.152,186.447,423.856,186.447z"/>
	<path style="fill:#FF5023;" d="M380.937,134.483c-1.733,0-3.475-0.586-4.907-1.788c-3.232-2.712-3.654-7.531-0.941-10.763
		l23.569-28.089c2.711-3.232,7.531-3.655,10.763-0.941c3.232,2.712,3.654,7.531,0.941,10.763l-23.569,28.089
		C385.282,133.555,383.116,134.483,380.937,134.483z"/>
	<path style="fill:#FF5023;" d="M322.846,100.332c-0.868,0-1.75-0.149-2.612-0.462c-3.965-1.443-6.009-5.827-4.566-9.792
		l12.541-34.456c1.443-3.964,5.828-6.011,9.792-4.565c3.965,1.443,6.009,5.827,4.566,9.792l-12.541,34.456
		C328.896,98.405,325.966,100.332,322.846,100.332z"/>
</g>
<g>
</g>
<g>
</g>
<g>
</g>
<g>
</g>
<g>
</g>
<g>
</g>
<g>
</g>
<g>
</g>
<g>
</g>
<g>
</g>
<g>
</g>
<g>
</g>
<g>
</g>
<g>
</g>
<g>
</g>
</svg>
